<svg xmlns="http://www.w3.org/2000/svg" xmlns:xlink="http://www.w3.org/1999/xlink" version="1.1" style="enable-background:new 0 0 512 512;" xml:space="preserve" width="800" height="600"><rect id="backgroundrect" width="100%" height="100%" x="0" y="0" fill="none" stroke="none"/>
















<g class="currentLayer" style=""><title>Layer 1</title><g id="svg_1" class="selected" fill="#6d6d6d" fill-opacity="1">
	<g id="svg_2" fill="#6d6d6d" fill-opacity="1">
		<path d="M400.5497741699219,44.549766540527344 C259.39377416992187,44.549766540527344 144.54977416992188,159.39376654052734 144.54977416992188,300.54976654052734 s114.844,256 256,256 s256,-114.844 256,-256 S541.7057741699218,44.549766540527344 400.5497741699219,44.549766540527344 zM400.5497741699219,513.8827665405274 c-117.635,0 -213.333,-95.698 -213.333,-213.333 c0,-51.151 18.125,-98.126 48.249,-134.918 l35.207,35.207 c-11.682,7.618 -19.456,20.75 -19.456,35.711 v149.333 c0,23.531 19.146,42.667 42.667,42.667 h204.5 l37.085,37.085 C498.67577416992185,495.75776654052737 451.7007741699219,513.8827665405274 400.5497741699219,513.8827665405274 zM400.5497741699219,364.54976654052734 c9.693,0 18.664,-2.794 26.504,-7.329 l15.585,15.585 c-11.997,8.225 -26.478,13.078 -42.089,13.078 c-41.167,0 -74.667,-33.5 -74.667,-74.667 c0,-15.611 4.853,-30.091 13.078,-42.089 l15.585,15.585 c-4.535,7.841 -7.329,16.813 -7.329,26.504 C347.2167741699219,340.6227665405273 371.13277416992184,364.54976654052734 400.5497741699219,364.54976654052734 zM400.5497741699219,257.8827665405273 c-3.867,0 -7.618,0.461 -11.254,1.246 l-16.957,-16.957 C381.0567741699219,238.59676654052734 390.55977416992187,236.54976654052734 400.5497741699219,236.54976654052734 c41.167,0 74.667,33.5 74.667,74.667 c0,9.99 -2.047,19.493 -5.622,28.211 l-16.957,-16.957 c0.785,-3.6350000000000002 1.246,-7.3870000000000005 1.246,-11.254 C453.8827741699219,281.80976654052733 429.96677416992185,257.8827665405273 400.5497741699219,257.8827665405273 zM565.6347741699219,435.46776654052735 l-24.268,-24.268 c5.281,-7.102 8.517,-15.805 8.517,-25.316 V236.54976654052734 c0,-23.531 -19.146,-42.667 -42.667,-42.667 H458.2997741699219 l-15.083,-15.083 c-4.021,-4.031 -9.396,-6.25 -15.083,-6.25 h-55.167 c-5.688000000000001,0 -11.063,2.219 -15.083,6.25 l-15.083,15.083 H324.0497741699219 l-58.418,-58.418 C302.4237741699219,105.34176654052735 349.39877416992186,87.21676654052735 400.5497741699219,87.21676654052735 c117.635,0 213.333,95.698 213.333,213.333 C613.882774169922,351.70076654052735 595.757774169922,398.6757665405273 565.6347741699219,435.46776654052735 z" fill="#6d6d6d" id="svg_3" fill-opacity="1"/>
	</g>
</g><g id="svg_4">
</g><g id="svg_5">
</g><g id="svg_6">
</g><g id="svg_7">
</g><g id="svg_8">
</g><g id="svg_9">
</g><g id="svg_10">
</g><g id="svg_11">
</g><g id="svg_12">
</g><g id="svg_13">
</g><g id="svg_14">
</g><g id="svg_15">
</g><g id="svg_16">
</g><g id="svg_17">
</g><g id="svg_18">
</g></g></svg>